<svg width="397" height="60" viewBox="0 0 397 60" fill="none" xmlns="http://www.w3.org/2000/svg">
    <path d="M74.76 45C72.52 45 71.4 44.04 71.4 42.12C71.4 41.7733 71.44 41.4 71.52 41L72.36 36.2H77.08L76.64 38.8C76.6133 38.8533 76.6 38.9733 76.6 39.16C76.6 39.6933 76.8933 39.96 77.48 39.96H82.68C83.3733 39.96 83.8 39.5733 83.96 38.8L84.72 34.52V34.24C84.72 33.68 84.4267 33.4 83.84 33.4H76.8C74.56 33.4 73.44 32.44 73.44 30.52C73.44 30.1733 73.48 29.8 73.56 29.4L75.04 21C75.52 18.3333 77.0667 17 79.68 17H88.92C91.16 17 92.28 17.96 92.28 19.88C92.28 20.2267 92.24 20.6 92.16 21L91.36 25.6H86.64L87.08 23.2C87.08 23.1467 87.08 23.0933 87.08 23.04C87.1067 22.9867 87.12 22.9333 87.12 22.88C87.12 22.3467 86.8267 22.08 86.24 22.08H81.04C80.32 22.08 79.9067 22.4533 79.8 23.2L79.04 27.32C79.0133 27.3733 79 27.48 79 27.64C79 28.2 79.2933 28.48 79.88 28.48H86.88C89.1467 28.48 90.28 29.44 90.28 31.36C90.28 31.7067 90.24 32.08 90.16 32.48L88.64 41C88.16 43.6667 86.6133 45 84 45H74.76ZM96.7813 45L100.741 22.4H94.2213L95.5813 17H113.741L112.341 22.4H106.221L102.261 45H96.7813ZM111.396 45L116.316 17H121.796L116.876 45H111.396ZM137.677 45L140.717 27.68L133.197 38.56L129.477 27.68L126.437 45H121.117L126.037 17H131.717L135.037 28.04L142.237 17H147.877L142.957 45H137.677ZM150.897 45C148.657 45 147.537 44.04 147.537 42.12C147.537 41.7733 147.577 41.4 147.657 41L151.897 17H157.297L153.497 38.48C153.47 38.5333 153.457 38.64 153.457 38.8C153.457 39.3333 153.763 39.6 154.377 39.6H158.337C159.083 39.6 159.51 39.2267 159.617 38.48L163.417 17H168.817L164.577 41C164.097 43.6667 162.563 45 159.977 45H150.897ZM167.994 45L172.914 17H178.394L174.394 39.6H182.434L181.514 45H167.994ZM188.279 45C186.039 45 184.919 44.04 184.919 42.12C184.919 41.7733 184.959 41.4 185.039 41L189.279 17H194.679L190.879 38.48C190.853 38.5333 190.839 38.64 190.839 38.8C190.839 39.3333 191.146 39.6 191.759 39.6H195.719C196.466 39.6 196.893 39.2267 196.999 38.48L200.799 17H206.199L201.959 41C201.479 43.6667 199.946 45 197.359 45H188.279ZM209.057 45C206.817 45 205.697 44.04 205.697 42.12C205.697 41.7733 205.737 41.4 205.817 41L206.657 36.2H211.377L210.937 38.8C210.91 38.8533 210.897 38.9733 210.897 39.16C210.897 39.6933 211.19 39.96 211.777 39.96H216.977C217.67 39.96 218.097 39.5733 218.257 38.8L219.017 34.52V34.24C219.017 33.68 218.724 33.4 218.137 33.4H211.097C208.857 33.4 207.737 32.44 207.737 30.52C207.737 30.1733 207.777 29.8 207.857 29.4L209.337 21C209.817 18.3333 211.364 17 213.977 17H223.217C225.457 17 226.577 17.96 226.577 19.88C226.577 20.2267 226.537 20.6 226.457 21L225.657 25.6H220.937L221.377 23.2C221.377 23.1467 221.377 23.0933 221.377 23.04C221.404 22.9867 221.417 22.9333 221.417 22.88C221.417 22.3467 221.124 22.08 220.537 22.08H215.337C214.617 22.08 214.204 22.4533 214.097 23.2L213.337 27.32C213.31 27.3733 213.297 27.48 213.297 27.64C213.297 28.2 213.59 28.48 214.177 28.48H221.177C223.444 28.48 224.577 29.44 224.577 31.36C224.577 31.7067 224.537 32.08 224.457 32.48L222.937 41C222.457 43.6667 220.91 45 218.297 45H209.057Z" fill="black"/>
    <path d="M234.635 45L239.555 17H250.995C254.381 17 256.075 18.36 256.075 21.08C256.075 21.56 256.021 22.0667 255.915 22.6L252.955 39.4C252.315 43.1333 250.021 45 246.075 45H234.635ZM250.355 24.36C250.381 24.2533 250.395 24.16 250.395 24.08C250.395 23.9733 250.395 23.88 250.395 23.8C250.395 22.8667 249.861 22.4 248.795 22.4H243.995L240.955 39.6H245.755C247.035 39.6 247.795 38.96 248.035 37.68L250.355 24.36ZM256.002 45L260.922 17H276.802L275.442 22.4H265.322L264.362 27.92H273.962L272.642 32.6H263.522L262.282 39.6H272.922L272.002 45H256.002ZM280.292 45L278.812 17H284.732L285.332 35.36L292.492 17H298.012L286.772 45H280.292ZM300.883 45L304.843 22.4H298.323L299.683 17H317.843L316.443 22.4H310.323L306.363 45H300.883ZM319.098 45C316.858 45 315.738 44.04 315.738 42.12C315.738 41.7733 315.778 41.4 315.858 41L319.378 21C319.858 18.3333 321.404 17 324.018 17H333.898C336.138 17 337.258 17.96 337.258 19.88C337.258 20.2267 337.218 20.6 337.138 21L333.618 41C333.138 43.6667 331.591 45 328.978 45H319.098ZM331.298 23.56C331.298 23.5067 331.298 23.4533 331.298 23.4C331.324 23.3467 331.338 23.2933 331.338 23.24C331.338 22.68 331.031 22.4 330.418 22.4H325.618C324.898 22.4 324.471 22.7867 324.338 23.56L321.698 38.48C321.671 38.5333 321.658 38.64 321.658 38.8C321.658 39.3333 321.964 39.6 322.578 39.6H327.378C328.124 39.6 328.551 39.2267 328.658 38.48L331.298 23.56ZM340.699 45C338.459 45 337.339 44.04 337.339 42.12C337.339 41.7733 337.379 41.4 337.459 41L340.979 21C341.459 18.3333 343.006 17 345.619 17H355.499C357.739 17 358.859 17.96 358.859 19.88C358.859 20.2267 358.819 20.6 358.739 21L355.219 41C354.739 43.6667 353.193 45 350.579 45H340.699ZM352.899 23.56C352.899 23.5067 352.899 23.4533 352.899 23.4C352.926 23.3467 352.939 23.2933 352.939 23.24C352.939 22.68 352.633 22.4 352.019 22.4H347.219C346.499 22.4 346.073 22.7867 345.939 23.56L343.299 38.48C343.273 38.5333 343.259 38.64 343.259 38.8C343.259 39.3333 343.566 39.6 344.179 39.6H348.979C349.726 39.6 350.153 39.2267 350.259 38.48L352.899 23.56ZM358.541 45L363.461 17H368.941L364.941 39.6H372.981L372.061 45H358.541ZM378.666 45C376.426 45 375.306 44.04 375.306 42.12C375.306 41.7733 375.346 41.4 375.426 41L376.266 36.2H380.986L380.546 38.8C380.52 38.8533 380.506 38.9733 380.506 39.16C380.506 39.6933 380.8 39.96 381.386 39.96H386.586C387.28 39.96 387.706 39.5733 387.866 38.8L388.626 34.52V34.24C388.626 33.68 388.333 33.4 387.746 33.4H380.706C378.466 33.4 377.346 32.44 377.346 30.52C377.346 30.1733 377.386 29.8 377.466 29.4L378.946 21C379.426 18.3333 380.973 17 383.586 17H392.826C395.066 17 396.186 17.96 396.186 19.88C396.186 20.2267 396.146 20.6 396.066 21L395.266 25.6H390.546L390.986 23.2C390.986 23.1467 390.986 23.0933 390.986 23.04C391.013 22.9867 391.026 22.9333 391.026 22.88C391.026 22.3467 390.733 22.08 390.146 22.08H384.946C384.226 22.08 383.813 22.4533 383.706 23.2L382.946 27.32C382.92 27.3733 382.906 27.48 382.906 27.64C382.906 28.2 383.2 28.48 383.786 28.48H390.786C393.053 28.48 394.186 29.44 394.186 31.36C394.186 31.7067 394.146 32.08 394.066 32.48L392.546 41C392.066 43.6667 390.52 45 387.906 45H378.666Z" fill="#77E8B9"/>
    <rect width="60" height="60" rx="4" fill="#77E8B9"/>
    <path fill-rule="evenodd" clip-rule="evenodd" d="M23.435 8.58579C22.654 7.80474 21.3876 7.80474 20.6066 8.58579L10.0208 19.1716H10V19.1924L9.99998 19.1924L10 19.1924V41.1213L9.99998 41.1213L10 41.1214V41.1716H10.0502L20.6066 51.7279C21.3876 52.509 22.654 52.509 23.435 51.7279L25.5563 49.6066C26.3374 48.8256 26.3374 47.5592 25.5563 46.7782L17 38.2219V22.0919L25.5563 13.5355C26.3374 12.7545 26.3374 11.4882 25.5563 10.7071L23.435 8.58579Z" fill="white"/>
    <path fill-rule="evenodd" clip-rule="evenodd" d="M36.565 51.4142C37.346 52.1953 38.6123 52.1953 39.3934 51.4142L49.9792 40.8284L50 40.8284L50 40.8076L50 40.8076L50 40.8076L50 18.8787L50 18.8787L50 18.8786L50 18.8284L49.9497 18.8284L39.3934 8.27207C38.6123 7.49102 37.346 7.49102 36.565 8.27207L34.4436 10.3934C33.6626 11.1744 33.6626 12.4408 34.4436 13.2218L43 21.7781L43 37.9081L34.4436 46.4645C33.6626 47.2455 33.6626 48.5118 34.4436 49.2929L36.565 51.4142Z" fill="white"/>
</svg>
